<svg xmlns="http://www.w3.org/2000/svg" viewBox="0 0 851 1004" fill="#09F3DB"><path fill-rule="evenodd" d="M111 811 L110 833 L114 834 L114 811 Z M179 810 L180 831 L182 831 L182 810 Z M123 791 L120 794 L120 855 L122 857 L139 858 L140 861 L136 863 L136 866 L139 868 L156 867 L158 866 L157 862 L148 863 L143 861 L142 858 L173 857 L175 855 L175 794 L172 791 Z M126 795 L169 795 L172 798 L173 849 L170 854 L127 855 L124 853 L123 798 Z M133 782 L134 786 L156 785 L155 781 L135 780 Z M582 558 L583 565 L585 565 L585 562 L589 560 L594 566 L594 570 L598 570 L598 566 L594 565 L591 558 Z M542 552 L542 554 L579 554 L579 552 L575 551 Z M584 554 L641 553 L643 551 L643 534 L590 533 L590 535 L638 535 L641 538 L641 548 L638 551 L587 551 L584 552 Z M531 551 L535 553 L533 549 L533 538 L536 535 L557 535 L557 533 L533 533 L531 535 Z M587 387 L588 406 L590 408 L617 408 L619 406 L619 386 L589 385 Z M590 392 L593 389 L597 388 L614 388 L617 391 L617 403 L614 406 L593 406 L590 403 Z M567 370 L567 372 L577 375 L576 371 Z M535 321 L533 323 L532 399 L534 402 L534 421 L536 423 L627 423 L629 421 L631 326 L629 322 L626 320 Z M540 326 L621 326 L625 330 L625 367 L622 370 L616 370 L616 372 L622 373 L625 376 L626 418 L623 421 L539 421 L536 418 L537 398 L541 396 L543 399 L543 408 L549 408 L549 406 L545 403 L545 399 L547 393 L552 389 L568 390 L571 394 L571 399 L566 408 L571 408 L573 406 L572 386 L545 386 L541 390 L538 389 L538 376 L541 370 L538 367 L537 330 Z M516 201 L514 205 L515 228 L522 231 L531 231 L538 228 L539 203 L536 200 Z M520 203 L533 203 L536 206 L536 223 L533 226 L522 226 L517 222 L517 206 Z M162 125 L160 125 L161 133 L159 138 L161 138 L163 134 Z M101 104 L100 134 L101 156 L103 158 L122 158 L124 157 L125 150 L128 147 L139 148 L151 145 L151 143 L144 145 L131 145 L127 143 L127 138 L143 139 L146 138 L146 136 L134 137 L129 135 L126 132 L128 126 L124 124 L124 121 L127 118 L143 117 L151 119 L151 117 L144 115 L126 116 L124 114 L124 104 L122 102 L103 102 Z M106 105 L119 105 L122 108 L122 125 L120 134 L121 152 L118 155 L107 155 L104 152 L104 107 Z M845 40 L776 40 L774 42 L774 358 L772 367 L774 386 L774 415 L772 419 L774 431 L774 750 L772 773 L771 881 L773 884 L773 921 L771 928 L773 952 L771 960 L773 964 L773 987 L768 994 L700 994 L697 997 L698 1003 L847 1003 L850 1000 L850 890 L848 889 L848 869 L850 868 L850 793 L847 790 L847 749 L850 746 L850 725 L847 721 L847 714 L850 710 L850 700 L847 696 L847 587 L850 583 L850 487 L848 486 L848 459 L850 458 L850 451 L847 447 L847 433 L850 430 L850 422 L848 421 L847 416 L848 144 L847 42 Z M702 2 L702 30 L704 32 L829 32 L831 30 L831 3 L829 0 L703 0 Z M4 0 L2 3 L2 11 L0 12 L0 51 L2 52 L2 90 L0 91 L0 94 L3 98 L2 225 L0 226 L0 333 L2 334 L3 350 L2 407 L0 408 L0 617 L2 618 L2 641 L0 642 L0 649 L2 650 L2 652 L0 653 L0 698 L2 699 L2 943 L0 944 L0 953 L2 954 L2 976 L0 977 L0 993 L2 994 L3 1001 L5 1003 L601 1003 L602 1001 L613 996 L623 989 L634 986 L653 977 L662 970 L669 969 L679 964 L683 960 L683 956 L681 953 L676 953 L657 962 L647 969 L633 974 L595 994 L327 995 L323 991 L322 982 L323 927 L321 924 L321 905 L323 877 L317 872 L277 872 L247 874 L245 876 L244 923 L240 927 L77 928 L74 925 L74 706 L77 703 L89 702 L122 703 L151 701 L151 604 L154 601 L193 599 L214 601 L242 600 L245 603 L245 763 L243 788 L244 841 L250 844 L315 844 L318 841 L317 582 L304 556 L292 544 L277 533 L265 530 L117 530 L110 528 L81 529 L77 525 L77 479 L80 476 L246 475 L267 469 L276 463 L309 427 L314 416 L314 274 L316 257 L314 174 L311 171 L77 171 L75 169 L75 116 L77 107 L76 75 L79 72 L126 72 L129 75 L129 84 L133 88 L335 88 L338 91 L336 239 L338 330 L338 480 L336 489 L338 501 L338 530 L340 532 L415 532 L418 529 L418 88 L421 85 L571 85 L574 82 L574 71 L577 68 L624 68 L627 71 L627 83 L631 87 L672 87 L675 90 L675 112 L672 115 L432 116 L430 236 L431 524 L434 527 L533 528 L754 527 L757 524 L757 386 L759 337 L757 333 L757 275 L756 273 L751 271 L677 271 L674 274 L673 379 L675 387 L675 454 L672 457 L508 457 L505 454 L505 408 L507 405 L506 192 L509 189 L667 189 L670 192 L669 231 L672 235 L748 236 L752 232 L750 41 L685 40 L682 37 L682 3 L680 0 L627 0 L625 3 L625 29 L622 32 L576 31 L573 28 L573 4 L570 0 L337 0 L335 3 L335 10 L332 13 L309 13 L306 10 L306 3 L304 0 L131 0 L129 3 L129 32 L126 35 L78 35 L74 30 L75 4 L72 0 Z M145 601 L148 604 L149 697 L146 700 L77 700 L74 697 L74 630 L76 610 L80 606 L88 603 L140 603 Z M79 275 L99 275 L102 273 L130 273 L133 275 L133 345 L130 348 L78 348 L75 345 L76 324 L79 321 L89 319 L92 314 L91 307 L87 305 L89 310 L87 317 L79 318 L76 315 L77 308 L82 305 L82 303 L78 302 L76 299 L76 278 Z M74 242 L77 239 L241 240 L243 243 L243 383 L240 386 L77 386 L74 383 L74 354 L77 351 L134 351 L136 349 L137 342 L136 273 L134 271 L80 270 L76 266 Z"/></svg>